<svg width="31" height="31" viewBox="0 0 31 31" fill="none" xmlns="http://www.w3.org/2000/svg">
<path d="M29.0741 7C29.0741 5.34314 27.7309 4 26.0741 4H3.99999C2.34314 4 0.999992 5.34315 0.999992 7V20.4815C0.999992 22.1383 2.34314 23.4815 3.99999 23.4815H26.0741C27.7309 23.4815 29.0741 22.1383 29.0741 20.4815V7Z" stroke="white" stroke-width="2"/>
<rect x="-1" y="1" width="5" height="5" rx="1" transform="matrix(-1 0 0 1 11 13)" stroke="white" stroke-width="2"/>
<rect x="-1" y="1" width="5" height="5" rx="1" transform="matrix(-1 0 0 1 22 13)" stroke="white" stroke-width="2"/>
<path d="M24 1V7" stroke="white" stroke-width="2" stroke-linecap="round" stroke-linejoin="round"/>
<path d="M6 1V7" stroke="white" stroke-width="2" stroke-linecap="round" stroke-linejoin="round"/>
<path d="M29 10L0.999999 10" stroke="white" stroke-width="2" stroke-linecap="round" stroke-linejoin="round"/>
</svg>
