<svg width="30" height="36" viewBox="0 0 30 36" fill="none" xmlns="http://www.w3.org/2000/svg">
<path d="M29 31.5C29 31.6365 28.9035 31.9673 28.2427 32.4359C27.6079 32.8862 26.6245 33.3326 25.3193 33.7242C22.7215 34.5035 19.0729 35 15 35C10.9271 35 7.27848 34.5035 4.68075 33.7242C3.37551 33.3326 2.39209 32.8862 1.75731 32.4359C1.09654 31.9673 1 31.6365 1 31.5C1 31.3635 1.09654 31.0327 1.75731 30.5641C2.39209 30.1138 3.37551 29.6674 4.68075 29.2758C7.27848 28.4965 10.9271 28 15 28C19.0729 28 22.7215 28.4965 25.3193 29.2758C26.6245 29.6674 27.6079 30.1138 28.2427 30.5641C28.9035 31.0327 29 31.3635 29 31.5Z" stroke="#FF4988" stroke-width="2"/>
<path d="M25 10.9091C25 13.7401 23.8179 18.8723 21.863 23.3108C20.8893 25.5216 19.7526 27.4927 18.5286 28.8939C17.2863 30.316 16.0911 31 15 31C13.9089 31 12.7137 30.316 11.4714 28.8939C10.2474 27.4927 9.1107 25.5216 8.13699 23.3108C6.18209 18.8723 5 13.7401 5 10.9091C5 5.44426 9.46931 1 15 1C20.5307 1 25 5.44426 25 10.9091Z" fill="white" stroke="#000A3F" stroke-width="2"/>
<circle cx="15.1538" cy="11.0769" r="4.53846" stroke="#FF4988" stroke-width="2"/>
</svg>
