<svg width="36" height="29" viewBox="0 0 36 29" fill="none" xmlns="http://www.w3.org/2000/svg">
<mask id="path-1-inside-1" fill="white">
<path fill-rule="evenodd" clip-rule="evenodd" d="M14.3541 0.5C13.5363 0.5 12.8008 0.997903 12.4971 1.75722L11.2 5H6C2.68629 5 0 7.68629 0 11V23C0 26.3137 2.68629 29 6 29H30C33.3137 29 36 26.3137 36 23V11C36 7.68629 33.3137 5 30 5H25.8L24.5029 1.75722C24.1992 0.997902 23.4637 0.5 22.6459 0.5H14.3541Z"/>
</mask>
<path d="M12.4971 1.75722L10.6402 1.01444L10.6402 1.01444L12.4971 1.75722ZM11.2 5V7H12.5541L13.057 5.74278L11.2 5ZM25.8 5L23.943 5.74278L24.4459 7H25.8V5ZM24.5029 1.75722L22.6459 2.5L22.6459 2.5L24.5029 1.75722ZM14.3541 2.5L14.3541 2.5V-1.5C12.7184 -1.5 11.2476 -0.504194 10.6402 1.01444L14.3541 2.5ZM13.057 5.74278L14.3541 2.5L10.6402 1.01444L9.34305 4.25722L13.057 5.74278ZM6 7H11.2V3H6V7ZM2 11C2 8.79086 3.79086 7 6 7V3C1.58172 3 -2 6.58172 -2 11H2ZM2 23V11H-2V23H2ZM6 27C3.79086 27 2 25.2091 2 23H-2C-2 27.4183 1.58172 31 6 31V27ZM30 27H6V31H30V27ZM34 23C34 25.2091 32.2091 27 30 27V31C34.4183 31 38 27.4183 38 23H34ZM34 11V23H38V11H34ZM30 7C32.2091 7 34 8.79086 34 11H38C38 6.58172 34.4183 3 30 3V7ZM25.8 7H30V3H25.8V7ZM22.6459 2.5L23.943 5.74278L27.657 4.25722L26.3598 1.01444L22.6459 2.5ZM22.6459 2.5L22.6459 2.5L26.3598 1.01444C25.7524 -0.504197 24.2816 -1.5 22.6459 -1.5V2.5ZM14.3541 2.5H22.6459V-1.5H14.3541V2.5Z" fill="#000A3F" mask="url(#path-1-inside-1)"/>
<circle cx="18" cy="16" r="6" stroke="#FF4988" stroke-width="2"/>
<path d="M25.5 10H31" stroke="#000A3F" stroke-width="2" stroke-linecap="round"/>
</svg>
