<svg width="36" height="29" viewBox="0 0 36 29" fill="none" xmlns="http://www.w3.org/2000/svg">
<path d="M1 4.12903C1 2.47217 2.34315 1.12903 4 1.12903H32C33.6569 1.12903 35 2.47217 35 4.12903V13.2258C35 13.7781 34.5523 14.2258 34 14.2258H2C1.44772 14.2258 1 13.7781 1 13.2258V4.12903Z" stroke="#000A3F" stroke-width="2"/>
<path d="M34.8387 9.41935L2.32259 9.41935" stroke="#000A3F" stroke-width="2" stroke-linecap="round" stroke-linejoin="round"/>
<path d="M30.1936 17.5484L29.676 18.7128C28.5269 21.2985 28.5269 24.2499 29.676 26.8356L30.1936 28" stroke="#000A3F" stroke-width="2" stroke-linecap="round" stroke-linejoin="round"/>
<path d="M25.5484 17.5484L25.0309 18.7128C23.8817 21.2985 23.8817 24.2499 25.0309 26.8356L25.5484 28" stroke="#000A3F" stroke-width="2" stroke-linecap="round" stroke-linejoin="round"/>
<path d="M5.80645 17.5484L6.32397 18.7128C7.47315 21.2985 7.47315 24.2499 6.32397 26.8356L5.80645 28" stroke="#000A3F" stroke-width="2" stroke-linecap="round" stroke-linejoin="round"/>
<path d="M10.4516 17.5484L10.9691 18.7128C12.1183 21.2985 12.1183 24.2499 10.9691 26.8356L10.4516 28" stroke="#000A3F" stroke-width="2" stroke-linecap="round" stroke-linejoin="round"/>
<path d="M20.9032 4.77419H13.9355" stroke="#FF4988" stroke-width="2" stroke-linecap="round" stroke-linejoin="round"/>
</svg>
