<svg width="36" height="36" viewBox="0 0 36 36" fill="none" xmlns="http://www.w3.org/2000/svg">
<path d="M30 6V15" stroke="#FF4988" stroke-width="2" stroke-linecap="round" stroke-linejoin="round"/>
<path d="M4 23C4 21.3431 5.34315 20 7 20H30C31.6569 20 33 21.3431 33 23V28C33 29.6569 31.6569 31 30 31H7C5.34315 31 4 29.6569 4 28V23Z" stroke="#000A3F" stroke-width="2"/>
<path d="M1 18C1 16.8954 1.89543 16 3 16H33C34.1046 16 35 16.8954 35 18C35 19.1046 34.1046 20 33 20H3C1.89543 20 1 19.1046 1 18Z" stroke="#000A3F" stroke-width="2"/>
<path d="M7 31V35" stroke="#000A3F" stroke-width="2" stroke-linecap="round" stroke-linejoin="round"/>
<path d="M30 31V35" stroke="#000A3F" stroke-width="2" stroke-linecap="round" stroke-linejoin="round"/>
<path d="M28 3L30 6" stroke="#FF4988" stroke-width="2" stroke-linecap="round" stroke-linejoin="round"/>
<path d="M27.5 2.75L24 4.75" stroke="#FF4988" stroke-width="2" stroke-linecap="round" stroke-linejoin="round"/>
</svg>
