<svg width="36" height="32" viewBox="0 0 36 32" fill="none" xmlns="http://www.w3.org/2000/svg">
<path d="M4.9899 13.6105C5.50724 12.6206 6.53174 12 7.64874 12H28.3513C29.4683 12 30.4928 12.6206 31.0101 13.6105L32.0553 15.6105C33.0991 17.6079 31.6501 20 29.3964 20H6.60357C4.34991 20 2.90095 17.6079 3.94474 15.6105L4.9899 13.6105Z" stroke="#000A3F" stroke-width="2"/>
<path d="M25 21.5C25 20.6716 25.6716 20 26.5 20C27.3284 20 28 20.6716 28 21.5V29.5C28 30.3284 27.3284 31 26.5 31C25.6716 31 25 30.3284 25 29.5V21.5Z" stroke="#000A3F" stroke-width="2"/>
<path d="M8 21.5C8 20.6716 8.67157 20 9.5 20C10.3284 20 11 20.6716 11 21.5V29.5C11 30.3284 10.3284 31 9.5 31C8.67157 31 8 30.3284 8 29.5V21.5Z" stroke="#000A3F" stroke-width="2"/>
<path d="M12 11V6" stroke="#000A3F" stroke-width="2" stroke-linecap="round"/>
<path d="M10 1H14V4C14 5.10457 13.1046 6 12 6C10.8954 6 10 5.10457 10 4V1Z" stroke="#FF4988" stroke-width="2"/>
<path d="M24 11V6" stroke="#000A3F" stroke-width="2" stroke-linecap="round"/>
<path d="M22 1H26V4C26 5.10457 25.1046 6 24 6C22.8954 6 22 5.10457 22 4V1Z" stroke="#FF4988" stroke-width="2"/>
</svg>
